<svg width="912" height="662" viewBox="0 0 912 662" fill="none" xmlns="http://www.w3.org/2000/svg">
<path d="M628.357 68C771.542 -17.1753 690.111 242.775 816.5 282C908.143 310.441 936.5 459 888 504C821.514 565.689 772.5 539 727.5 605C642.201 730.105 487.605 567.481 365.53 636C254.519 698.309 127.798 639.5 85 554C64.4759 512.998 -34.9452 483.366 12.9229 352.669C53.3683 242.239 250.237 376.681 191.448 242.239C113.667 64.3643 195.893 -37.1724 365.53 31.754C443.847 63.5756 466.443 164.317 628.357 68Z" fill="#F0E9F7"/>
<path d="M271.851 248.908C271.851 249.459 272.297 249.906 272.849 249.906H583.772C584.323 249.906 584.77 249.459 584.77 248.908V248.908C584.77 178.76 527.904 121.894 457.756 121.894H398.865C328.717 121.894 271.851 178.76 271.851 248.908V248.908Z" fill="#F58300"/>
<path d="M330.66 248.888C330.66 249.441 331.108 249.889 331.661 249.889H524.884C525.437 249.889 525.885 249.441 525.885 248.888V219.149C525.885 165.239 482.183 121.537 428.273 121.537V121.537C374.363 121.537 330.66 165.239 330.66 219.149V248.888Z" fill="#FFA53D"/>
<path d="M391.062 248.888C391.062 249.441 391.51 249.889 392.062 249.889H464.483C465.036 249.889 465.484 249.441 465.484 248.888V158.748C465.484 138.197 448.824 121.537 428.273 121.537V121.537C407.722 121.537 391.062 138.197 391.062 158.748V248.888Z" fill="#F58300"/>
<rect x="271.851" y="249.906" width="312.919" height="212.465" rx="4" fill="#8663E1"/>
<rect x="271.338" y="244.496" width="313.87" height="25.8862" rx="4" fill="#BBA2FF"/>
<rect x="271.338" y="437.564" width="313.87" height="24.8076" rx="4" fill="#BBA2FF"/>
<path d="M388.904 462.371H468.72V344.805C468.72 322.764 450.853 304.897 428.812 304.897V304.897C406.772 304.897 388.904 322.764 388.904 344.805V462.371Z" fill="#F6C33E"/>
<path d="M481.663 462.371H538.828V363.68C538.828 347.895 526.031 335.098 510.246 335.098V335.098C494.46 335.098 481.663 347.895 481.663 363.68V462.371Z" fill="#F6C33E"/>
<path d="M317.718 462.371H374.883V363.68C374.883 347.895 362.086 335.098 346.3 335.098V335.098C330.515 335.098 317.718 347.895 317.718 363.68V462.371Z" fill="#F6C33E"/>
<path d="M584.771 209.013H656.778V203.235C656.778 183.351 640.658 167.231 620.774 167.231V167.231C600.89 167.231 584.771 183.351 584.771 203.235V209.013Z" fill="#F6C33E"/>
<rect width="72.007" height="253.358" rx="4" transform="matrix(-1 0 0 1 656.777 209.013)" fill="#A988FF"/>
<rect width="71.187" height="22.6504" rx="4" transform="matrix(-1 0 0 1 656.395 208.902)" fill="#F58300"/>
<rect width="71.187" height="22.6504" rx="4" transform="matrix(-1 0 0 1 656.395 269.304)" fill="#F58300"/>
<rect width="71.187" height="22.6504" rx="4" transform="matrix(-1 0 0 1 656.395 329.705)" fill="#F58300"/>
<path fill-rule="evenodd" clip-rule="evenodd" d="M447.936 103.866C447.184 103.948 446.42 103.99 445.646 103.99C434.108 103.99 424.755 94.6369 424.755 83.0992C424.755 79.4361 425.698 75.9933 427.354 73C416.893 74.1405 408.753 83.003 408.753 93.7668C408.753 105.305 418.106 114.658 429.644 114.658C437.519 114.658 444.376 110.301 447.936 103.866Z" fill="#F6C33E"/>
<rect x="161.321" y="298.425" width="14.0217" height="163.946" rx="7.01084" fill="#F58300"/>
<path d="M153.86 241.927C159.719 229.039 178.025 229.039 183.883 241.927L222.614 327.136C240.381 366.223 211.806 410.599 168.872 410.599V410.599C125.937 410.599 97.3624 366.223 115.129 327.136L153.86 241.927Z" fill="#A988FF"/>
<rect x="734.535" y="354.237" width="9.24834" height="108.134" rx="4.62417" fill="#F58300"/>
<path d="M729.614 316.972C733.478 308.471 745.552 308.471 749.416 316.972L774.962 373.174C786.681 398.954 767.834 428.224 739.515 428.224V428.224C711.196 428.224 692.349 398.954 704.068 373.174L729.614 316.972Z" fill="#8663E1"/>
<rect x="117.1" y="462.371" width="662.255" height="8.62873" rx="4.31436" fill="#2A106B"/>
<rect x="471.857" y="19" width="109" height="20" rx="10" fill="#BBA1FF"/>
<rect x="229.857" y="82" width="82" height="16" rx="8" fill="#BBA1FF"/>
<rect x="486.857" width="80" height="20" rx="10" fill="#BBA1FF"/>
<rect x="625.857" y="112" width="80" height="20" rx="10" fill="#BBA1FF"/>
<rect x="248.857" y="65" width="44" height="17" rx="8.5" fill="#BBA1FF"/>
</svg>
