<svg width="854" height="697" viewBox="0 0 854 697" fill="none" xmlns="http://www.w3.org/2000/svg">
<path d="M625.702 110C768.886 24.8247 693.812 277.775 820.202 317C967.631 362.755 985.074 573.789 910.5 624.5C835.5 675.5 762.5 644.056 674.5 675.5C560.421 716.263 508.575 606.981 386.5 675.5C275.489 737.809 165.5 650.5 122.702 565C102.178 523.998 -37.6009 525.366 10.2672 394.669C50.7125 284.239 247.582 418.681 188.792 284.239C111.012 106.364 193.238 4.82764 362.874 73.754C441.191 105.576 463.787 206.317 625.702 110Z" fill="#F0E9F7"/>
<path d="M250.195 248.908C250.195 249.459 250.642 249.906 251.193 249.906H562.117C562.668 249.906 563.115 249.459 563.115 248.908V248.908C563.115 178.76 506.248 121.894 436.1 121.894H377.21C307.062 121.894 250.195 178.76 250.195 248.908V248.908Z" fill="#F58300"/>
<path d="M309.005 248.888C309.005 249.441 309.453 249.889 310.006 249.889H503.229C503.782 249.889 504.23 249.441 504.23 248.888V219.149C504.23 165.239 460.527 121.537 406.617 121.537V121.537C352.707 121.537 309.005 165.239 309.005 219.149V248.888Z" fill="#FFA53D"/>
<path d="M369.406 248.888C369.406 249.441 369.854 249.889 370.407 249.889H442.828C443.381 249.889 443.829 249.441 443.829 248.888V158.748C443.829 138.197 427.169 121.537 406.618 121.537V121.537C386.066 121.537 369.406 138.197 369.406 158.748V248.888Z" fill="#F58300"/>
<rect x="250.195" y="249.906" width="312.919" height="212.465" rx="4" fill="#8663E1"/>
<rect x="249.683" y="244.496" width="313.87" height="25.8862" rx="4" fill="#BBA2FF"/>
<rect x="249.683" y="437.564" width="313.87" height="24.8076" rx="4" fill="#BBA2FF"/>
<path d="M367.249 462.371H447.065V344.805C447.065 322.764 429.197 304.897 407.157 304.897V304.897C385.116 304.897 367.249 322.764 367.249 344.805V462.371Z" fill="#F6C33E"/>
<path d="M460.008 462.371H517.173V363.68C517.173 347.894 504.376 335.098 488.59 335.098V335.098C472.805 335.098 460.008 347.894 460.008 363.68V462.371Z" fill="#F6C33E"/>
<path d="M296.062 462.371H353.228V363.68C353.228 347.894 340.431 335.098 324.645 335.098V335.098C308.859 335.098 296.062 347.894 296.062 363.68V462.371Z" fill="#F6C33E"/>
<path d="M563.115 209.013H635.122V203.235C635.122 183.351 619.003 167.231 599.119 167.231V167.231C579.235 167.231 563.115 183.351 563.115 203.235V209.013Z" fill="#F6C33E"/>
<rect width="72.007" height="253.358" rx="4" transform="matrix(-1 0 0 1 635.122 209.013)" fill="#A988FF"/>
<rect width="71.187" height="22.6504" rx="4" transform="matrix(-1 0 0 1 634.739 208.902)" fill="#F58300"/>
<rect width="71.187" height="22.6504" rx="4" transform="matrix(-1 0 0 1 634.739 269.304)" fill="#F58300"/>
<rect width="71.187" height="22.6504" rx="4" transform="matrix(-1 0 0 1 634.739 329.705)" fill="#F58300"/>
<path fill-rule="evenodd" clip-rule="evenodd" d="M426.281 103.866C425.529 103.948 424.764 103.99 423.99 103.99C412.453 103.99 403.1 94.6369 403.1 83.0992C403.1 79.4361 404.042 75.9933 405.698 73C395.238 74.1405 387.098 83.003 387.098 93.7668C387.098 105.305 396.451 114.658 407.989 114.658C415.863 114.658 422.72 110.301 426.281 103.866Z" fill="#F6C33E"/>
<rect x="139.666" y="298.425" width="14.0217" height="163.946" rx="7.01084" fill="#F58300"/>
<path d="M132.205 241.927C138.063 229.039 156.369 229.039 162.227 241.927L200.959 327.136C218.726 366.223 190.151 410.599 147.216 410.599V410.599C104.282 410.599 75.7071 366.223 93.4737 327.136L132.205 241.927Z" fill="#A988FF"/>
<rect x="712.88" y="354.237" width="9.24834" height="108.134" rx="4.62417" fill="#F58300"/>
<path d="M707.959 316.972C711.822 308.471 723.897 308.471 727.761 316.972L753.307 373.174C765.025 398.954 746.178 428.224 717.86 428.224V428.224C689.541 428.224 670.694 398.954 682.412 373.174L707.959 316.972Z" fill="#8663E1"/>
<rect x="95.4443" y="462.371" width="662.255" height="8.62873" rx="4.31436" fill="#2A106B"/>
<rect x="450.202" y="19" width="109" height="20" rx="10" fill="#BBA1FF"/>
<rect x="208.202" y="82" width="82" height="16" rx="8" fill="#BBA1FF"/>
<rect x="465.202" width="80" height="20" rx="10" fill="#BBA1FF"/>
<rect x="604.202" y="112" width="80" height="20" rx="10" fill="#BBA1FF"/>
<rect x="227.202" y="65" width="44" height="17" rx="8.5" fill="#BBA1FF"/>
</svg>
