<svg width="584" height="537" viewBox="0 0 584 537" fill="none" xmlns="http://www.w3.org/2000/svg">
<circle cx="268.5" cy="268.5" r="268.5" fill="#F8F4F9"/>
<rect x="79" y="115" width="364" height="308" rx="60" fill="#F6C33E"/>
<mask id="mask0_42_8" style="mask-type:alpha" maskUnits="userSpaceOnUse" x="79" y="115" width="365" height="308">
<rect x="79" y="115" width="364.383" height="308" rx="60" fill="#8663E1"/>
</mask>
<g mask="url(#mask0_42_8)">
<rect x="79" y="115" width="364" height="88" rx="2" fill="#8663E1"/>
</g>
<circle cx="276" cy="283" r="52" fill="#F58300"/>
<path fill-rule="evenodd" clip-rule="evenodd" d="M275.334 353.367C276.202 351.998 275.076 350.274 273.457 350.354C272.382 350.407 271.3 350.434 270.211 350.434C234.493 350.434 205.538 321.479 205.538 285.761C205.538 275.795 207.792 266.355 211.818 257.925C212.517 256.462 211.36 254.757 209.762 255.029C179.24 260.215 156 286.786 156 318.785C156 354.504 184.955 383.459 220.673 383.459C243.673 383.459 263.868 371.453 275.334 353.367Z" fill="#664BAA"/>
<path d="M328 236.972L345.253 225" stroke="#F58300" stroke-width="7" stroke-linecap="round"/>
<path d="M345 283.644L365.99 283" stroke="#F58300" stroke-width="7" stroke-linecap="round"/>
<path d="M333 326L349.148 339.426" stroke="#F58300" stroke-width="7" stroke-linecap="round"/>
<path d="M301 350L307.926 369.825" stroke="#F58300" stroke-width="7" stroke-linecap="round"/>
<path fill-rule="evenodd" clip-rule="evenodd" d="M530.521 296.886C518.884 263.217 482.158 245.357 448.489 256.994C414.821 268.631 396.961 305.358 408.598 339.026L426.621 391.17C427.941 394.991 426.906 399.231 423.974 402.015L418.889 406.841C412.032 413.349 418.876 424.613 427.812 421.525L436.002 418.694C436.067 418.672 436.138 418.706 436.16 418.772C436.183 418.837 436.254 418.872 436.319 418.849L558.006 376.791C558.071 376.768 558.106 376.697 558.083 376.632C558.061 376.566 558.096 376.495 558.161 376.473L566.351 373.642C575.286 370.554 573.715 357.467 564.302 356.582L557.322 355.926C553.297 355.547 549.864 352.851 548.544 349.03L530.521 296.886Z" fill="#8663E1"/>
<rect x="436.501" y="245.267" width="17" height="30" rx="8.5" transform="rotate(-19.0666 436.501 245.267)" fill="#8663E1"/>
<path d="M519.28 395.995C520.245 398.787 520.651 401.743 520.474 404.692C520.297 407.642 519.541 410.527 518.248 413.185C516.956 415.842 515.153 418.218 512.943 420.179C510.732 422.139 508.157 423.645 505.364 424.61C502.571 425.576 499.616 425.981 496.667 425.804C493.717 425.627 490.831 424.871 488.174 423.579C485.517 422.287 483.14 420.484 481.18 418.273C479.219 416.063 477.714 413.487 476.748 410.695L498.014 403.345L519.28 395.995Z" fill="#F6C33E"/>
<path d="M531.953 407.55C532.483 410.457 532.436 413.44 531.813 416.328C531.191 419.217 530.006 421.954 528.325 424.385C526.645 426.815 524.502 428.891 522.02 430.493C519.537 432.095 516.763 433.193 513.856 433.723" stroke="#2A106B" stroke-width="3" stroke-linecap="round"/>
<path d="M549.013 401.55C549.926 406.555 549.844 411.69 548.772 416.663C547.701 421.636 545.66 426.349 542.767 430.533C539.874 434.718 536.185 438.291 531.911 441.05C527.637 443.808 522.861 445.698 517.856 446.611" stroke="#2A106B" stroke-width="3" stroke-linecap="round"/>
<path d="M160.101 177H154.503V150.45H163.593C165.621 150.45 167.355 150.846 168.795 151.638C170.247 152.418 171.351 153.48 172.107 154.824C172.875 156.156 173.259 157.662 173.259 159.342C173.259 161.01 172.869 162.54 172.089 163.932C171.321 165.312 170.217 166.422 168.777 167.262C167.337 168.09 165.609 168.504 163.593 168.504H160.101V177ZM160.101 166.776L157.581 164.184H162.999C163.935 164.184 164.751 163.998 165.447 163.626C166.143 163.242 166.683 162.69 167.067 161.97C167.451 161.238 167.643 160.362 167.643 159.342C167.643 158.31 167.451 157.458 167.067 156.786C166.695 156.102 166.161 155.598 165.465 155.274C164.781 154.938 163.959 154.77 162.999 154.77H157.581L160.101 152.106V166.776ZM176.739 177V157.884H182.337V164.472L181.185 163.752C181.317 162.852 181.557 162.024 181.905 161.268C182.253 160.512 182.703 159.858 183.255 159.306C183.807 158.742 184.461 158.304 185.217 157.992C185.985 157.68 186.861 157.524 187.845 157.524C188.613 157.524 189.213 157.584 189.645 157.704C190.089 157.812 190.365 157.896 190.473 157.956L189.555 162.96C189.447 162.9 189.207 162.804 188.835 162.672C188.463 162.54 187.983 162.474 187.395 162.474C186.435 162.474 185.631 162.636 184.983 162.96C184.335 163.284 183.813 163.716 183.417 164.256C183.033 164.784 182.757 165.372 182.589 166.02C182.421 166.668 182.337 167.322 182.337 167.982V177H176.739ZM199.426 177.396C198.034 177.396 196.792 177.174 195.7 176.73C194.62 176.286 193.774 175.644 193.162 174.804C192.55 173.964 192.244 172.944 192.244 171.744C192.244 170.388 192.616 169.284 193.36 168.432C194.104 167.58 195.088 166.932 196.312 166.488C197.548 166.032 198.886 165.732 200.326 165.588C202.426 165.384 203.872 165.198 204.664 165.03C205.468 164.862 205.87 164.568 205.87 164.148C205.87 164.136 205.87 164.124 205.87 164.112C205.87 163.404 205.528 162.846 204.844 162.438C204.172 162.03 203.23 161.826 202.018 161.826C200.734 161.826 199.75 162.06 199.066 162.528C198.394 162.984 198.058 163.686 198.058 164.634H192.568C192.568 163.098 192.982 161.802 193.81 160.746C194.65 159.69 195.784 158.892 197.212 158.352C198.64 157.8 200.254 157.524 202.054 157.524C203.734 157.524 205.288 157.782 206.716 158.298C208.144 158.802 209.29 159.564 210.154 160.584C211.03 161.604 211.468 162.9 211.468 164.472C211.468 164.724 211.468 164.976 211.468 165.228C211.468 165.468 211.468 165.714 211.468 165.966V172.734C211.468 173.226 211.48 173.7 211.504 174.156C211.54 174.6 211.612 175.008 211.72 175.38C211.84 175.8 211.99 176.148 212.17 176.424C212.35 176.7 212.5 176.892 212.62 177H207.13C207.046 176.916 206.914 176.742 206.734 176.478C206.566 176.214 206.422 175.908 206.302 175.56C206.158 175.14 206.05 174.72 205.978 174.3C205.918 173.868 205.888 173.364 205.888 172.788L207.04 173.58C206.704 174.372 206.158 175.056 205.402 175.632C204.658 176.196 203.77 176.634 202.738 176.946C201.718 177.246 200.614 177.396 199.426 177.396ZM200.92 173.22C201.796 173.22 202.612 173.064 203.368 172.752C204.136 172.428 204.76 171.924 205.24 171.24C205.72 170.556 205.96 169.662 205.96 168.558V166.632L207.346 167.982C206.554 168.27 205.636 168.51 204.592 168.702C203.56 168.882 202.528 169.026 201.496 169.134C200.272 169.254 199.354 169.464 198.742 169.764C198.142 170.052 197.842 170.544 197.842 171.24C197.842 171.9 198.1 172.398 198.616 172.734C199.132 173.058 199.9 173.22 200.92 173.22ZM216.537 185.262C215.937 185.262 215.397 185.238 214.917 185.19C214.449 185.154 214.155 185.112 214.035 185.064V180.834C214.191 180.906 214.461 180.96 214.845 180.996C215.241 181.044 215.661 181.068 216.105 181.068C216.693 181.068 217.221 180.948 217.689 180.708C218.169 180.48 218.577 180.15 218.913 179.718C219.261 179.298 219.531 178.8 219.723 178.224L220.047 177.252L213.459 157.884H219.273L223.431 173.562H222.783L226.779 157.884H232.521L225.951 177.954C225.459 179.466 224.853 180.768 224.133 181.86C223.413 182.952 222.453 183.792 221.253 184.38C220.053 184.968 218.481 185.262 216.537 185.262ZM236.537 169.116V165.426H249.209L248.669 166.362C248.669 166.266 248.669 166.176 248.669 166.092C248.669 165.996 248.669 165.906 248.669 165.822C248.669 165.138 248.507 164.484 248.183 163.86C247.859 163.224 247.355 162.708 246.671 162.312C245.999 161.904 245.135 161.7 244.079 161.7C243.023 161.7 242.111 161.928 241.343 162.384C240.587 162.828 240.005 163.47 239.597 164.31C239.201 165.15 239.003 166.164 239.003 167.352C239.003 168.576 239.195 169.626 239.579 170.502C239.975 171.366 240.557 172.032 241.325 172.5C242.105 172.968 243.071 173.202 244.223 173.202C244.967 173.202 245.609 173.136 246.149 173.004C246.689 172.86 247.127 172.68 247.463 172.464C247.811 172.248 248.075 172.008 248.255 171.744C248.435 171.48 248.543 171.222 248.579 170.97H254.087C254.015 171.774 253.739 172.566 253.259 173.346C252.779 174.114 252.113 174.81 251.261 175.434C250.409 176.046 249.371 176.532 248.147 176.892C246.935 177.252 245.549 177.432 243.989 177.432C241.877 177.432 240.035 177.012 238.463 176.172C236.891 175.32 235.673 174.15 234.809 172.662C233.945 171.162 233.513 169.434 233.513 167.478C233.513 165.498 233.951 163.764 234.827 162.276C235.715 160.776 236.945 159.612 238.517 158.784C240.101 157.944 241.931 157.524 244.007 157.524C246.131 157.524 247.967 157.95 249.515 158.802C251.063 159.642 252.257 160.824 253.097 162.348C253.937 163.86 254.357 165.624 254.357 167.64C254.357 167.94 254.351 168.228 254.339 168.504C254.327 168.78 254.309 168.984 254.285 169.116H236.537ZM257.844 177V157.884H263.442V164.472L262.29 163.752C262.422 162.852 262.662 162.024 263.01 161.268C263.358 160.512 263.808 159.858 264.36 159.306C264.912 158.742 265.566 158.304 266.322 157.992C267.09 157.68 267.966 157.524 268.95 157.524C269.718 157.524 270.318 157.584 270.75 157.704C271.194 157.812 271.47 157.896 271.578 157.956L270.66 162.96C270.552 162.9 270.312 162.804 269.94 162.672C269.568 162.54 269.088 162.474 268.5 162.474C267.54 162.474 266.736 162.636 266.088 162.96C265.44 163.284 264.918 163.716 264.522 164.256C264.138 164.784 263.862 165.372 263.694 166.02C263.526 166.668 263.442 167.322 263.442 167.982V177H257.844ZM301.043 154.77H292.277L294.509 152.106V177H288.947V152.106L291.251 154.77H282.431V150.45H301.043V154.77ZM304.21 177V157.884H309.736V177H304.21ZM306.964 154.77C306.1 154.77 305.344 154.542 304.696 154.086C304.06 153.63 303.742 152.988 303.742 152.16C303.742 151.32 304.06 150.672 304.696 150.216C305.344 149.76 306.1 149.532 306.964 149.532C307.84 149.532 308.596 149.76 309.232 150.216C309.88 150.672 310.204 151.32 310.204 152.16C310.204 153 309.88 153.648 309.232 154.104C308.596 154.548 307.84 154.77 306.964 154.77ZM325.782 177V169.602C325.782 168.894 325.782 168.282 325.782 167.766C325.782 167.238 325.782 166.8 325.782 166.452C325.782 165.96 325.752 165.474 325.692 164.994C325.644 164.514 325.524 164.07 325.332 163.662C325.152 163.242 324.87 162.912 324.486 162.672C324.102 162.42 323.58 162.294 322.92 162.294C322.308 162.294 321.78 162.426 321.336 162.69C320.892 162.942 320.526 163.296 320.238 163.752C319.962 164.196 319.758 164.712 319.626 165.3C319.494 165.876 319.428 166.482 319.428 167.118L317.898 165.858C317.898 164.238 318.192 162.804 318.78 161.556C319.368 160.296 320.202 159.312 321.282 158.604C322.374 157.884 323.664 157.524 325.152 157.524C326.748 157.524 327.99 157.866 328.878 158.55C329.778 159.222 330.408 160.122 330.768 161.25C331.14 162.366 331.326 163.602 331.326 164.958C331.326 165.474 331.326 166.17 331.326 167.046C331.326 167.922 331.326 168.972 331.326 170.196V177H325.782ZM313.848 177V157.884H319.428V177H313.848ZM337.662 177V169.62C337.662 168.888 337.662 168.258 337.662 167.73C337.662 167.202 337.662 166.764 337.662 166.416C337.662 165.888 337.632 165.384 337.572 164.904C337.512 164.412 337.386 163.968 337.194 163.572C337.002 163.176 336.714 162.864 336.33 162.636C335.946 162.408 335.424 162.294 334.764 162.294C334.152 162.294 333.624 162.426 333.18 162.69C332.748 162.942 332.394 163.29 332.118 163.734C331.842 164.178 331.638 164.682 331.506 165.246C331.386 165.81 331.326 166.398 331.326 167.01L329.796 165.768C329.796 164.172 330.084 162.756 330.66 161.52C331.248 160.284 332.076 159.312 333.144 158.604C334.224 157.884 335.514 157.524 337.014 157.524C338.574 157.524 339.804 157.854 340.704 158.514C341.616 159.174 342.264 160.056 342.648 161.16C343.044 162.252 343.242 163.476 343.242 164.832C343.242 165.372 343.242 166.068 343.242 166.92C343.242 167.772 343.242 168.81 343.242 170.034V177H337.662ZM349.564 169.116V165.426H362.236L361.696 166.362C361.696 166.266 361.696 166.176 361.696 166.092C361.696 165.996 361.696 165.906 361.696 165.822C361.696 165.138 361.534 164.484 361.21 163.86C360.886 163.224 360.382 162.708 359.698 162.312C359.026 161.904 358.162 161.7 357.106 161.7C356.05 161.7 355.138 161.928 354.37 162.384C353.614 162.828 353.032 163.47 352.624 164.31C352.228 165.15 352.03 166.164 352.03 167.352C352.03 168.576 352.222 169.626 352.606 170.502C353.002 171.366 353.584 172.032 354.352 172.5C355.132 172.968 356.098 173.202 357.25 173.202C357.994 173.202 358.636 173.136 359.176 173.004C359.716 172.86 360.154 172.68 360.49 172.464C360.838 172.248 361.102 172.008 361.282 171.744C361.462 171.48 361.57 171.222 361.606 170.97H367.114C367.042 171.774 366.766 172.566 366.286 173.346C365.806 174.114 365.14 174.81 364.288 175.434C363.436 176.046 362.398 176.532 361.174 176.892C359.962 177.252 358.576 177.432 357.016 177.432C354.904 177.432 353.062 177.012 351.49 176.172C349.918 175.32 348.7 174.15 347.836 172.662C346.972 171.162 346.54 169.434 346.54 167.478C346.54 165.498 346.978 163.764 347.854 162.276C348.742 160.776 349.972 159.612 351.544 158.784C353.128 157.944 354.958 157.524 357.034 157.524C359.158 157.524 360.994 157.95 362.542 158.802C364.09 159.642 365.284 160.824 366.124 162.348C366.964 163.86 367.384 165.624 367.384 167.64C367.384 167.94 367.378 168.228 367.366 168.504C367.354 168.78 367.336 168.984 367.312 169.116H349.564Z" fill="white"/>
</svg>
